<svg width="33" height="33" viewBox="0 0 33 33" fill="none" xmlns="http://www.w3.org/2000/svg">
<path d="M27.5 19.25H5.5C3.98122 19.25 2.75 20.4812 2.75 22V27.5C2.75 29.0188 3.98122 30.25 5.5 30.25H27.5C29.0188 30.25 30.25 29.0188 30.25 27.5V22C30.25 20.4812 29.0188 19.25 27.5 19.25Z" stroke="#2CA0A1" stroke-width="2" stroke-linecap="round" stroke-linejoin="round"/>
<path d="M8.25 24.75H8.26375" stroke="#2CA0A1" stroke-width="2" stroke-linecap="round" stroke-linejoin="round"/>
<path d="M27.5 2.75H5.5C3.98122 2.75 2.75 3.98122 2.75 5.5V11C2.75 12.5188 3.98122 13.75 5.5 13.75H27.5C29.0188 13.75 30.25 12.5188 30.25 11V5.5C30.25 3.98122 29.0188 2.75 27.5 2.75Z" stroke="#2CA0A1" stroke-width="2" stroke-linecap="round" stroke-linejoin="round"/>
<path d="M8.25 8.25H8.26375" stroke="#2CA0A1" stroke-width="2" stroke-linecap="round" stroke-linejoin="round"/>
</svg>
