<svg width="30" height="31" viewBox="0 0 30 31" fill="none" xmlns="http://www.w3.org/2000/svg">
<circle cx="15.0763" cy="15.7099" r="13.9236" stroke="#2CA0A1" stroke-width="2"/>
<path d="M21.7091 23.1717V21.5135C21.7091 20.634 21.3597 19.7904 20.7377 19.1685C20.1158 18.5465 19.2722 18.1971 18.3927 18.1971H11.76C10.8804 18.1971 10.0369 18.5465 9.41494 19.1685C8.793 19.7904 8.4436 20.634 8.4436 21.5135V23.1717" stroke="#2CA0A1" stroke-width="2" stroke-linecap="round" stroke-linejoin="round"/>
<path d="M15.0763 14.8808C16.9078 14.8808 18.3926 13.396 18.3926 11.5644C18.3926 9.73283 16.9078 8.24805 15.0763 8.24805C13.2447 8.24805 11.7599 9.73283 11.7599 11.5644C11.7599 13.396 13.2447 14.8808 15.0763 14.8808Z" stroke="#2CA0A1" stroke-width="2" stroke-linecap="round" stroke-linejoin="round"/>
</svg>
