<svg width="30" height="31" viewBox="0 0 30 31" fill="none" xmlns="http://www.w3.org/2000/svg">
<circle cx="15.1534" cy="15.539" r="13.8467" fill="#2CA0A1" stroke="#2CA0A1" stroke-width="2"/>
<path d="M21.752 22.9623V21.3127C21.752 20.4377 21.4044 19.5985 20.7856 18.9798C20.1669 18.361 19.3277 18.0134 18.4527 18.0134H11.8542C10.9792 18.0134 10.14 18.361 9.52126 18.9798C8.90253 19.5985 8.55493 20.4377 8.55493 21.3127V22.9623" stroke="white" stroke-width="2" stroke-linecap="round" stroke-linejoin="round"/>
<path d="M15.1534 14.7142C16.9755 14.7142 18.4526 13.2371 18.4526 11.415C18.4526 9.59285 16.9755 8.11572 15.1534 8.11572C13.3313 8.11572 11.8541 9.59285 11.8541 11.415C11.8541 13.2371 13.3313 14.7142 15.1534 14.7142Z" stroke="white" stroke-width="2" stroke-linecap="round" stroke-linejoin="round"/>
</svg>
